<?xml version="1.0" encoding="UTF-8"?>
<svg version="1.1" viewBox="0 0 1024 1024" width="1280" height="1280" xmlns="http://www.w3.org/2000/svg">
<path transform="translate(0)" d="m0 0h1024v1024h-1024z" fill="#A5CDCB"/>
<path transform="translate(495,144)" d="m0 0h40l31 3 28 5 30 8 24 8 23 10 23 11 23 13 16 11 19 14 14 12 16 15 16 16 9 11 10 12 12 16 10 15 14 24 12 25 10 26 9 29 6 27 4 25 2 24v38l-2 25-5 30-9 36-9 27-9 21-8 16-9 17-16 24-12 16-11 13-12 14-17 17-8 7-10 9-10 8-19 14-19 12-16 9-16 8-19 9-24 9-26 8-30 7-28 4-30 2h-15l-30-2-28-4-27-6-38-12-29-12-17-8-21-12-19-12-19-14-13-11-8-7-13-12-12-12-7-8-2-4h-2l-11-14-11-15-14-21-12-22-11-23-8-20-8-25-6-24-5-27-3-27v-54l4-33 7-34 9-30 10-26 11-23 8-14 15-24 13-17 8-10 11-13 15-16 9-9h2l1-3 8-7 16-13 18-13 17-11 18-10 31-15 26-10 29-9 26-6 27-4z" fill="#01415A"/>
<path transform="translate(494,102)" d="m0 0h42l32 3 29 5 25 6 27 8 21 8 18 8 25 12 20 11 17 11 17 12 12 9 15 13 13 12 5 4 7 8 13 13 9 11 10 12 3 4v2h2l6 9 7 10 12 19 10 18 8 16 7 16 6 14 10 31 5 17 6 29 4 31 1 12v51l-3 32-4 25-5 22-5 19-9 27-11 26-8 16-9 17-9 14-10 16-10 13-9 12-12 14-7 8h-2l-2 4-20 20-8 7-13 11-24 18-18 12-13 8-22 12-25 12-26 10-30 10-21 5-43 7-21 2h-47l-31-3-29-5-26-6-19-6-25-9-28-12-22-11-19-11-24-16-16-12-13-10v-2l-6-3v-2h-2v-2l-4-2-9-9-8-7-16-17-12-14-10-13-6-8-7-10-7-11-10-17-10-18-13-29-10-28-4-13-6-24-6-31-2-15-2-34v-27l2-32 4-29 5-24 7-24 8-24 10-24 10-21 12-21 12-19 13-18 12-15 9-11 15-16 16-16 8-7 7-6h2v-2l9-7 5-2v-2l14-10 18-12 15-9 23-12 17-8 11-5 30-11 32-9 24-5 29-4zm1 42-31 3-29 5-26 7-33 11-29 13-22 11-18 11-16 11-13 10-16 13-7 6v2l-4 2-16 16-7 8-13 15-15 20-10 15-12 20-12 23-11 27-9 29-7 30-4 26-2 18v54l3 27 7 36 7 25 9 26 12 26 12 23 10 16 12 17 11 14 6 8h2l2 4 16 17 11 11 8 7 14 12 20 15 22 14 23 13 24 11 26 10 32 10 27 6 28 4 30 2h15l30-2 28-4 30-7 26-8 24-9 26-12 22-12 22-14 19-14 14-12 8-7 15-14 11-11 9-11 9-10 14-19 12-18 9-15 9-17 10-23 9-25 9-34 5-25 3-24 1-15v-38l-2-24-5-30-6-26-12-36-10-24-10-20-12-20-13-19-14-18-12-14-9-10-18-18-8-7-14-12-18-13-18-12-18-10-21-11-28-12-24-8-30-8-28-5-31-3z" fill="#F8F7DF"/>
<path transform="translate(432,174)" d="m0 0h8l5 5 1 2v686l-3 5-3 2h-8l-5-6v-183h-232l-5-5-1-4 3-6 3-2h232v-127h-263l-5-4-1-2v-6l4-5 3-1h262v-135h-232l-5-5v-6l3-5 3-1h231v-191z" fill="#F2F4DE"/>
<path transform="translate(586,174)" d="m0 0h8l5 4 1 3v190h182l6 3 1 2v7l-5 5h-184v135h262l5 2 3 4v6l-4 5-3 1h-263v127l187-1 6 2 4 5-1 7-5 4h-191v182l-3 6-7 2-5-2-3-3-1-5v-683l2-5z" fill="#F1F3DE"/>
<path transform="translate(644,198)" d="m0 0 5 2 14 7 17 6 20 4 14 2 6 7 10 14 7 10v107h-121v-122l8-11 14-18z" fill="#F4F5DE"/>
<path transform="translate(475,163)" d="m0 0h77l7 4 2 4 1 21 4 13 1 3v93l-3 9-7 8-9 4h-68l-8-3-6-5-5-9-1-4v-92l5-15 1-22 4-7z" fill="#F6F6DF"/>
<path transform="translate(669,697)" d="m0 0h11l10 4 9 8 4 7 2 10v5h11l-4-13v-3h25l1 1v74l-4 13-7 9-10 7-21 12-24 13-28 15-12 7h-2l-13-29-2-5v-117h22l-4 16h11v-8l3-10 6-8 9-6z" fill="#F6F6DF"/>
<path transform="translate(496,367)" d="m0 0h35l1 2 1 45 5 10 12 15 5 11 1 4v99l-3 8-4 5-10 5h-52l-8-4-6-8-2-5v-99l4-12 7-11 8-10 4-9 1-45z" fill="#F8F7DF"/>
<path transform="translate(466,757)" d="m0 0h97v105l-2 9-5 8-7 4-3 1h-65l-8-4-4-5-3-8z" fill="#F8F7DF"/>
<path transform="translate(467,607)" d="m0 0h93v98l-3 7-5 5-5 3h-68l-6-4-4-5-2-4-1-47v-31z" fill="#F8F7DF"/>
<path transform="translate(820,400)" d="m0 0h15l11 4 8 7 6 9 2 5 1 7v43l-3 13-6 10-8 8-11 5-7 1h-58l-12-2-8-4-10-9-4-6-4-11-1-6v-51l4-11 8-7 8-3h9l10 4 6 5 1 4-4-1h-10l-9 3-7 6-5 9-1 11 9 10 4 1 78 1 11-1 6-3 3-7-1-10-6-10-7-6-8-3h-13l-3 3 12 2 9 4 8 9 3 10-1 4-5 1h-41l-2-15-6-10-3-4 1-1h8l2-5 8-8 9-4z" fill="#A5CDCB"/>
<path transform="translate(226,397)" d="m0 0 4 2 5 3-8 16 1 4 5-5 7-4 4-1h10l11 4 10 8v2h2l7 11 3 9 1 5v20l-4 12-7 11-9 9-10 5h-9l-6-3-5 1-7 3h-9l-8-4-4 1-4 2h-11l-8-4-10-9-7-11-4-11-1-6v-13l3-12 6-12 9-10 10-6 7-2h9l9 1 5-12z" fill="#F5F5DE"/>
<path transform="translate(364,214)" d="m0 0h18l9 1v41l4 2 6 5 5 8 2 6v69l-4 8-4 3h-45l-4-2-4-7-1-3v-65l3-10 6-9 6-5h2v-26z" fill="#F7F6DF"/>
<path transform="translate(800,551)" d="m0 0h10l10 3 8 6 4 1 9-1 8 3 8 6 5 8 2 7 1 12-2 10-6 12-8 8-8 5-12 4-5 1h-7v20h-7v-20l-10-1-10-4-10-9-6-8-4-9-1-4v-19l5-13 6-8 10-7z" fill="#A5CDCB"/>
<path transform="translate(169,587)" d="m0 0h134l1 1v8l-4 13-9 14-9 8-10 5h-69l-11-6-5-4v-2h-2l-8-11-5-10-3-11z" fill="#F9F7DF"/>
<path transform="translate(331,439)" d="m0 0h67l6 5 4 9 1 5v14l-4 13-7 11-3 1v2l-10 7-12 4h-18l-11-4-9-6-7-8-6-12-2-8v-15l4-12z" fill="#A5CDCB"/>
<path transform="translate(274,282)" d="m0 0h9l1 8h6l1-7 1-1h11l9 4 8 7 4 5 4 9 1 5v14l-4 13-8 11-9 6-5 2h-13l-5-2-4 2h-12l-9-5-8-9-6-12-2-9v-10l3-11 7-10 8-6 6-3z" fill="#F8F7DF"/>
<path transform="translate(663,408)" d="m0 0h5l2 4v43l10 1 13 5 12 11 5 11 1 3v11l-4 8-6 5-8 2h-58l-7-3-5-5-3-7v-11l4-10 6-8 7-6 11-5 13-2 1-12-9-2-7-6-1-7 2-4 6-1 4 9 4 4 1-26z" fill="#A5CDCB"/>
<path transform="translate(506,220)" d="m0 0h16l12 5 9 7 7 11 3 10v12l-3 10-6 10-8 7-11 5-4 1h-15l-12-5-8-6-6-7-4-8-1-4v-17l4-11 6-8 9-8z" fill="#A5CDCB"/>
<path transform="translate(400,702)" d="m0 0h7l6 5 1 2v9l-4 6-11 4-7 8-9 9-7 8-15 15-7 8-20 20-9 6-7 2h-9l-9-4-1-4 4-7 1-5 5 5v2l2-1v-9l-3-5-8-4-3-1 2 7 1 3-12 4-2-4v-7l3-9 8-8 8-1 8 3 8 6 6 8 3-2-1-6-5-6-10-6-5-1 4-4 4-2 10 2 8 5 6 7v2l4-2-1-6-5-6-8-5-4-1v-2l9-4 9 2 6 4 6 7 4-2-1-5-4-5-10-5 4-4 4-2 7 1 7 4 4 5 4-2-1-5-5-5-4-2v-2l15-8 11-6z" fill="#A5CDCB"/>
<path transform="translate(400,743)" d="m0 0h8l5 5v9l-12 49-7 26-4 9-6 7-10 4h-7l-5-2 2-7v-8l-2-1h-6l-4 1-2 5h-3l-3-7v-13l3-6 6-5 3-1h11l10 5 3 1v-6l-7-4-6-2h-12l2-4 6-7h12l8 4 4 1v-8l-9-3-10-1 2-4 6-7h7l7 3h3v-6l-4-2-9-1 6-8 2-2h7l5 1v-6l-6-2 2-4z" fill="#A5CDCB"/>
<path transform="translate(251,693)" d="m0 0h8l2 8 9 1 8 5 6 7 3 7 1 5v9l-4 11-7 8-7 5-6 2-11 1-9-2-9-5-7-7-5-10-1-5v-8l4-11 8-9 11-5h6z" fill="#F7F6DF"/>
<path transform="translate(768,271)" d="m0 0h7l4 2 2 3 1 22 5 14 7 10 7 7 11 7 10 5 6 7 1 6-4 4-7 3h-18l-12-4-12-7-10-9-7-10-5-11-2-9-1-11 2-12 5-10 7-6z" fill="#F2F4DE"/>
<path transform="translate(224,428)" d="m0 0 13 1 10 4 7 7 4 8 1 4v13l-4 11-9 10-11 5-11 1-10-3-9-6-6-8-3-8v-15l4-9 6-8 12-6z" fill="#01415A"/>
<path transform="translate(616,238)" d="m0 0h1v107l109-1v-12l1-11v-6l-1-1-3 3h-95l-4-2 2-4h101v-55l1-3 8-1 1-2v107h-121z" fill="#A5CDCB"/>
<path transform="translate(506,367)" d="m0 0h25l1 2 1 45 5 10 12 15 5 11 1 4v99l-3 8-4 5-10 5h-52l-8-4-2-3 1-1 10-1 35-1 11-4 7-8 2-4 1-16v-70l-2-15-7-13-10-12-3-7-1-30h-13l-1-1z" fill="#A5CDCB"/>
<path transform="translate(475,163)" d="m0 0h77l7 4 2 4 1 25-2-1h-24l-70-1v-22l4-7z" fill="#F1F3DD"/>
<path transform="translate(506,220)" d="m0 0h16l12 5 9 7 7 11 3 10v12l-3 10-6 10-8 7-11 5-4 1h-15l-12-5-8-6-6-7-4-8-1-4v-17l4-11 6-8 9-8zm3 11-9 3-8 7-5 8-2 8 1 9 5 10 7 7 10 4h12l9-4 8-7 4-7 1-4v-12l-6-12-8-7-10-3z" fill="#01415A"/>
<path transform="translate(648,457)" d="m0 0h18l15 5 10 7 1 4-8 4-13 13h-6l-5 5-10 6-10 5-5 1h-10l-4-7-1-3v-11l4-10 6-8 7-6z" fill="#F6F6DF"/>
<path transform="translate(466,757)" d="m0 0h97v105l-2 9-5 8-7 4-3 1h-65v-1l36-1 23-11 5-2v-2l4-4 2-5 1-100h-85v109h-1z" fill="#A5CDCB"/>
<path transform="translate(643,237)" d="m0 0h63l1 1v24l-3 2h-60l-3-3v-22z" fill="#01415A"/>
<path transform="translate(169,587)" d="m0 0h134l1 1v8l-4 13-9 14-9 8-10 5h-69v-1l25-1 12-3 14-7 12-11 7-11 3-8 1-5-107-1-1 4z" fill="#A5CDCB"/>
<path transform="translate(740,444)" d="m0 0h2l7 8 5 2 78 1 11-1 6-3 4-4 1 3-12 13-7 6-7 3h-61l-8-3-7-5-7-8-5-8-1-3z" fill="#F4F5DE"/>
<path transform="translate(548,607)" d="m0 0h12v98l-3 7-5 5-5 3h-68v-1l39-1 16-3 6-3h2v-2h2l2-5 1-1z" fill="#A5CDCB"/>
<path transform="translate(769,697)" d="m0 0 9 2 7 7 3 6 1 10-2 8-4 7-7 5-1 31h-7v-32l-6-2-6-7-2-6v-14l5-10 6-4z" fill="#F5F5DE"/>
<path transform="translate(712,715)" d="m0 0h25l1 1v74l-4 13-7 9-10 7-21 12-2-1 6-7 6-9 4-10 1-9 1-2h5l2 7 6-4 1-2 1-34v-32l1-12h-15l-1 2z" fill="#A5CDCB"/>
<path transform="translate(317,746)" d="m0 0 10 2 8 5 6 7-1 7-8 14-4 5h-2v2l-14 7-12 2 2-6 2-7 5 5v2l2-1v-9l-3-5-8-4-3-1 2 7 1 3-12 4-2-4v-7l3-9 8-8 8-1 8 3 8 6 6 8 3-2-1-6-5-6-10-6-5-1 4-4z" fill="#F0F3DD"/>
<path transform="translate(566,208)" d="m0 0h1v93l-3 9-7 8-9 4h-68l-8-3-6-5-2-5 2 1h75l8-3 5-5 4-6 7-21z" fill="#A5CDCB"/>
<path transform="translate(292,282)" d="m0 0h11l9 4 8 7 4 5 4 9 1 5v14l-4 13-8 11-9 6-5 2h-13l-5-2-4 2h-12l-9-5-6-6v-2l9 3 2 1h15l16-3 10-6 6-8 4-10 1-5-1-13-2-5v-3h-2l-7-8-7-3-5-1-2 3z" fill="#A5CDCB"/>
<path transform="translate(382,215)" d="m0 0h9v41l4 2 6 5 5 8 2 6v69l-4 8-4 3h-24v-1l14-1 5-6 3-10v-61l-4-11-4-5-8-5z" fill="#A5CDCB"/>
<path transform="translate(314,236)" d="m0 0h18l-1 14-4 12-8 9-9 4h-16l-6-2-1-7 2-9 6-10 9-7z" fill="#A5CDCB"/>
<path transform="translate(182,644)" d="m0 0h120l-7 11h-107l-6-9z" fill="#F9F7DF"/>
<path transform="translate(229,317)" d="m0 0h8l1 13-12 5-11 7-3 1v3l10-3 15-6 4 1 5 10-4 3-12 4-5 1h-14l-12-2-1-4 5-12 6-9 7-7 9-4z" fill="#A5CDCB"/>
<path transform="translate(463,587)" d="m0 0h101v9l-1 1h-100z" fill="#F0F3DD"/>
<path transform="translate(764,420)" d="m0 0h10l8 4 5 5 3 5 1 4v9l-2 1h-34l-5-2-2-3v-7l3-7 8-7z" fill="#A5CDCB"/>
<path transform="translate(811,567)" d="m0 0 5 1 1 18 8-7 5-1 1 5-12 10h-2v7l1 4 9-8 4 2v4l-12 9h-2l-1 12 9-7 4-2 3 3-3 5-13 8-8-1-13-10-4-4 2-4 5 2 7 6 4 3v-21l-9-8-8-7 2-4 5 1 9 8 2 1v-24z" fill="#01415A"/>
<path transform="translate(462,738)" d="m0 0h103v9h-103z" fill="#F8F7DF"/>
<path transform="translate(325,610)" d="m0 0 5 1 21 9 12 5 2 1v25l-9-1-12-6-11-11-6-12z" fill="#F0F3DD"/>
<path transform="translate(809,424)" d="m0 0h12l10 5 6 5 3 1 1-3 3 3 2 10-1 2-5 1h-41l-2-17 5-4z" fill="#A5CDCB"/>
<path transform="translate(262,702)" d="m0 0h8l8 5 6 7 3 7 1 5v9l-4 11-7 8-7 5-6 2-11 1-9-2-9-5-3-4 11 3h9l10-4 9-7 4-7 1-5v-11l-5-10-6-6z" fill="#A5CDCB"/>
<path transform="translate(409,610)" d="m0 0h2l-1 10-4 9-4 6-4 5-10 7-10 4h-6v-20l32-18z" fill="#EFF2DD"/>
<path transform="translate(363,400)" d="m0 0 4 1 8 7 7 12 1 11h-36l-1-4 3-11 6-9z" fill="#A5CDCB"/>
<path transform="translate(492,177)" d="m0 0h43l5 4 1 4-2 5-5 3h-41l-5-3-1-2v-6z" fill="#01415A"/>
<path transform="translate(668,708)" d="m0 0h12l6 3 5 5 3 6v9h-40l1-11 4-6z" fill="#01415A"/>
<path transform="translate(820,400)" d="m0 0h15l11 4v2l-14-1-9 3-7 6-2 4 12 2 9 4 6 6-1 5-4-1-8-6-7-3h-12l-10 5-3 1-8-12 1-1h8l2-5 8-8 9-4z" fill="#EEF2DD"/>
<path transform="translate(658,744)" d="m0 0h34l5 5v7l-4 4-5 1h-30l-5-3-2-4 1-6 3-3z" fill="#01415A"/>
<path transform="translate(407,587)" d="m0 0h3l2 8v7l-9 6-14 8-15 9h-2v-18l17-10z" fill="#EFF2DD"/>
<path transform="translate(496,341)" d="m0 0h32l7 3 1 2v11h-45v-11z" fill="#F9F7DF"/>
<path transform="translate(356,808)" d="m0 0h11l10 5 1 4-3 9-1 2-5-2-10-2-1 3 1 5-5 3h-2l-2 5h-3l-3-7v-13l3-6 6-5z" fill="#F0F2DD"/>
<path transform="translate(560,171)" d="m0 0h1l1 25-2-1h-24l-70-1v-22h1v10h20l2 8 4 2h41l5-3 1-6-2-4 6 2 16 1z" fill="#A5CDCB"/>
<path transform="translate(327,588)" d="m0 0 6 2 32 15v15l-9-3-30-13-1-1v-9z" fill="#EEF2DD"/>
<path transform="translate(620,556)" d="m0 0h10l8 7 1 6-7 8-4 8h-9l-5-2-3-5-1-8 3-8 5-5z" fill="#F2F4DE"/>
<path transform="translate(626,311)" d="m0 0h99l1 3-3 3h-95l-4-2z" fill="#01415A"/>
<path transform="translate(627,326)" d="m0 0h81l17 1-1 5h-98l-2-1 1-4z" fill="#01415A"/>
<path transform="translate(714,556)" d="m0 0h10l6 4 5 8v8l-5 8-9 1-3-1-4-9-5-5-3-2 1-6z" fill="#F3F4DE"/>
<path transform="translate(752,292)" d="m0 0h1l1 18 4 10 8 13 7 7 2 1v2l5 2 11 6 6 2h20l5-3 2-6 4 4 1 6-4 4-7 3h-18l-12-4-12-7-10-9-7-10-5-11-2-9-1-11z" fill="#A5CDCB"/>
<path transform="translate(182,644)" d="m0 0h120l-7 11h-107v-1l67-1v-2l9-2 8-2 1-1-89-1-1 2z" fill="#A5CDCB"/>
<path transform="translate(161,554)" d="m0 0 10 2 24 9 17 6-1 7-19-3-19-6-16-6-1-4z" fill="#EDF1DC"/>
<path transform="translate(398,568)" d="m0 0 4 1 6 10-1 3-35 19v-15l20-13z" fill="#EDF1DC"/>
<path transform="translate(337,568)" d="m0 0 8 6 11 7 9 5v13l-6-2-24-11-6-4 1-5 6-8z" fill="#ECF1DC"/>
<path transform="translate(410,408)" d="m0 0h7l-2 6-4 11-3 8-9-1-10-2-1-4v-7l9-7z" fill="#A5CDCB"/>
<path transform="translate(779,701)" d="m0 0 6 5 3 6 1 10-2 8-4 7-7 5-1 31h-7v-32l-2-1 7-2 6-8 3-10v-9z" fill="#A5CDCB"/>
<path transform="translate(312,408)" d="m0 0 11 1 10 4 7 6v11l-17 3h-3l-5-17-3-6z" fill="#A5CDCB"/>
<path transform="translate(764,420)" d="m0 0h10l7 3v3l-12 6-9 8-4 8-6-2-2-3v-7l3-7 8-7z" fill="#F0F3DD"/>
<path transform="translate(479,628)" d="m0 0h61v6l-2 1h-58l-3-2 1-4z" fill="#01415A"/>
<path transform="translate(689,592)" d="m0 0h20l1 1-1 13-2 7h-18z" fill="#EEF2DD"/>
<path transform="translate(638,592)" d="m0 0h20v21l-17 1-2-4-1-8z" fill="#EDF1DC"/>
<path transform="translate(671,562)" d="m0 0 9 1 8 5-2 4-5 8-3 5h-9l-6-12-3-2 1-4 6-4z" fill="#ECF1DC"/>
<path transform="translate(614,592)" d="m0 0h18l2 15v6l-17 1-2-2-2-12v-7z" fill="#EEF2DD"/>
<path transform="translate(664,592)" d="m0 0h19v21h-19z" fill="#EEF1DD"/>
<path transform="translate(314,236)" d="m0 0h14l2 2h-3l-1 3-14 6-8 6-7 8-5 6-1-2h-2v-8l6-10 9-7z" fill="#EBF0DC"/>
<path transform="translate(360,554)" d="m0 0h5v26l-5-2-9-5-10-9 5-5 10-4z" fill="#EAF0DC"/>
<path transform="translate(275,426)" d="m0 0h2l7 11 3 9 1 5v20l-4 12-7 11-9 9-10 5h-6l4-3 9-6 9-10 7-14 2-8v-19l-5-16-3-4z" fill="#A5CDCB"/>
<path transform="translate(526,246)" d="m0 0 5 2 1 5-12 11-8 8-5-1-12-12 1-5 4-1 8 7h3l12-11z" fill="#01415A"/>
<path transform="translate(762,294)" d="m0 0 4 1 3 16 7 14 9 10 10 7 11 6v3l-8-1-12-7-10-9-8-11-5-11-2-8v-8z" fill="#01415A"/>
<path transform="translate(716,592)" d="m0 0h16v14l-2 7-16 1-1-2 2-19z" fill="#F1F3DD"/>
<path transform="translate(372,554)" d="m0 0 9 1 9 4 5 4v2l-12 9-9 5h-2z" fill="#EAEFDC"/>
<path transform="translate(390,707)" d="m0 0h4v8l-3 7-10 10-3 1-1-3-7-6-4-2v-2l15-8z" fill="#F1F3DD"/>
<path transform="translate(618,619)" d="m0 0h18l5 10 3 4-1 4-7 5-4-2-5-5-7-9z" fill="#EAF0DC"/>
<path transform="translate(711,619)" d="m0 0h17l-3 9-7 10h-2v2l-5 3-8-8 2-5 5-9z" fill="#A5CDCB"/>
<path transform="translate(364,192)" d="m0 0h26l1 12-4 1h-23l-1-1v-11z" fill="#F8F7DF"/>
<path transform="translate(665,619)" d="m0 0h18l-2 14-4 7-4 3-5-6-3-10z" fill="#EBF0DC"/>
<path transform="translate(818,697)" d="m0 0 4 1 3 2-2 5-9 10-7 8-9 10h-1v-12l5-5 12-14z" fill="#E8EFDB"/>
<path transform="translate(336,736)" d="m0 0 9 2 6 4 5 5-1 7-4 3-4 1v-2h-2l-4-6-10-7-4-1v-2z" fill="#EDF1DC"/>
<path transform="translate(316,702)" d="m0 0h8l5 5 1 7-3 5-4 2h-7l-5-5-1-7 4-6z" fill="#EBF0DC"/>
<path transform="translate(693,401)" d="m0 0 11 1 2 1-1 5-3 5-3 3-3 1h-10l-5-5 3-7 5-3z" fill="#A5CDCB"/>
<path transform="translate(751,402)" d="m0 0h9l4 1 2 4-11 4-14 7-7 6h-2l1-8 4-6 6-5z" fill="#EFF2DD"/>
<path transform="translate(636,401)" d="m0 0 7 1 6 5 2 6-3 3-4 1h-8l-6-3-3-6-1-5 1-1z" fill="#A5CDCB"/>
<path transform="translate(696,639)" d="m0 0 4 1 5 5v3l-11 5-10 2h-7l-1-4 1-6 15-4z" fill="#ECF1DC"/>
<path transform="translate(648,640)" d="m0 0 6 1 14 3 2 4v7h-9l-12-3-8-5 5-6z" fill="#EAEFDC"/>
<path transform="translate(363,791)" d="m0 0h12l8 4-1 8-1 4-5-2-9-3h-12l2-4z" fill="#F0F3DD"/>
<path transform="translate(826,371)" d="m0 0h6l5 3 1 2v8l-4 4-6 1-5-3-3-5 2-7z" fill="#EAF0DC"/>
<path transform="translate(829,667)" d="m0 0 6 2 3 3v8l-5 5h-7l-5-5v-7l4-5z" fill="#EAF0DC"/>
<path transform="translate(354,726)" d="m0 0 7 1 7 4 3 4-1 5-6 5-5-4-5-5-8-4 4-4z" fill="#ECF1DC"/>
<path transform="translate(642,619)" d="m0 0h17l3 14v3h-7l-5-3-6-8z" fill="#E7EEDB"/>
<path transform="translate(156,559)" d="m0 0 15 4 17 5 7 3 16 3v-2l-2-1h3l-1 7-19-3-19-6-16-6z" fill="#A5CDCB"/>
<path transform="translate(689,619)" d="m0 0h16l-3 9-8 7-2 1h-7l3-16z" fill="#E7EEDB"/>
<path transform="translate(648,573)" d="m0 0 9 3 4 6v3h-25l2-6 5-5z" fill="#ECF1DC"/>
<path transform="translate(698,573)" d="m0 0 9 3 4 6v3h-25l2-6 6-5z" fill="#F1F3DD"/>
<path transform="translate(226,397)" d="m0 0 4 2 5 3-10 20v-2l-5-2-7-3v-1l5-1 5-12z" fill="#A5CDCB"/>
<path transform="translate(376,773)" d="m0 0h7l6 2 1 5-3 7-6-1-13-2 2-4z" fill="#EDF1DC"/>
<path transform="translate(496,341)" d="m0 0h32l7 3 1 2v11h-45v-11h1v10h37l-3-10-3-3-27-1z" fill="#A5CDCB"/>
<path transform="translate(726,558)" d="m0 0 4 2 5 8v8l-5 8-9 1-3-1 2-4 4-2 3-7v-9z" fill="#A5CDCB"/>
<path transform="translate(238,439)" d="m0 0 6 1 4 4v6l-4 4-6 1-5-4-1-6 2-4z" fill="#E7EEDB"/>
<path transform="translate(554,587)" d="m0 0h10v9l-1 1h-100v-1h91z" fill="#A5CDCB"/>
<path transform="translate(631,558)" d="m0 0 4 2 4 5-1 5-6 7-4 8h-9l3-1 1-6 8-13z" fill="#A5CDCB"/>
<path transform="translate(321,242)" d="m0 0 3 1-1 3-11 7-8 7-7 9h-4l2-6 6-8 8-7z" fill="#01415A"/>
<path transform="translate(682,423)" d="m0 0 5 3v8l-4 5-5 3-5-1-1-5 3-6z" fill="#A5CDCB"/>
<path transform="translate(718,592)" d="m0 0h14v14l-2 7h-8l2-20h-6z" fill="#A5CDCB"/>
<path transform="translate(556,738)" d="m0 0h9v9h-101v-1h92z" fill="#A5CDCB"/>
<path transform="translate(712,620)" d="m0 0h7l-1 7-7 10-1 2-4-1-3-3 2-5 5-9z" fill="#EEF2DD"/>
<path transform="translate(359,823)" d="m0 0 10 2 5 4 2 4-1 6h-4l-5-6-8-4-1-4z" fill="#01415A"/>
<path transform="translate(231,554)" d="m0 0 2 1-1 5-2 2 1 5 4 4-1 4h-2v-2l-9-3-1-2v-10z" fill="#DAE8D8"/>
<path transform="translate(254,554)" d="m0 0 2 1-1 5-2 1v5l5 4-1 5-11-5-1-2v-9l4-3z" fill="#DAE8D8"/>
<path transform="translate(274,555)" d="m0 0h4v5l-3 2 1 4 4 4v5h-2v-2l-9-3-2-4v-7l5-3z" fill="#E2ECDA"/>
<path transform="translate(700,296)" d="m0 0h24l1 4-5 2h-11l-9-1-1-4z" fill="#01415A"/>
<path transform="translate(364,192)" d="m0 0h26l1 12-4 1-5-1v-11l-17 1-1 10h-1v-11z" fill="#A5CDCB"/>
<path transform="translate(512,778)" d="m0 0 5 1 3 4-1 6-3 2-7-1-2-2 1-7z" fill="#01415A"/>
<path transform="translate(701,284)" d="m0 0h23l1 4-1 1-21 1-3-1z" fill="#01415A"/>
<path transform="translate(512,823)" d="m0 0 5 1 3 3v5l-3 3-5 1-4-2-1-7 2-3z" fill="#01415A"/>
<path transform="translate(511,801)" d="m0 0 7 1 2 2v6l-4 3h-6l-3-3 1-7z" fill="#01415A"/>
<path transform="translate(510,846)" d="m0 0h7l3 3v5l-4 4h-5l-4-4v-5z" fill="#01415A"/>
<path transform="translate(626,296)" d="m0 0h21v5l-3 1h-11l-9-2z" fill="#01415A"/>
<path transform="translate(626,284)" d="m0 0h20l1 5-7 1h-11l-4-1z" fill="#01415A"/>
<path transform="translate(316,249)" d="m0 0 4 1-3 6-9 6-7 3 2-5 10-9z" fill="#E5EDDB"/>
<path transform="translate(672,289)" d="m0 0 6 1 1 1v6l-3 3-6-1-1-1v-7z" fill="#01415A"/>
<path transform="translate(283,605)" d="m0 0 4 1 1 4-7 8-5-1 2-4z" fill="#01415A"/>
<path transform="translate(780,276)" d="m0 0h1l1 22 4 12-1 2-5-8-2-7v-11h2z" fill="#A6CDCB"/>
<path transform="translate(665,489)" d="m0 0 5 1 1 1v6l-2 2-5-1-2-2 1-5z" fill="#01415A"/>
<path transform="translate(389,758)" d="m0 0 4 1-1 5-3 1v2h-9l4-5z" fill="#E6EDDB"/>
<path transform="translate(639,481)" d="m0 0h5l1 1v5l-2 2-5-1-1-5z" fill="#01415A"/>
<path transform="translate(690,481)" d="m0 0 4 1 1 5-2 2-5-1-1-4z" fill="#01415A"/>
<path transform="translate(712,793)" d="m0 0h5l1 1v6l-3 1-4-2z" fill="#01415A"/>
<path transform="translate(756,483)" d="m0 0h5l1 1v5l-5 1-2-2z" fill="#01415A"/>
<path transform="translate(275,566)" d="m0 0 5 4v5h-2v-2l-7-2 3-4z" fill="#D2E4D6"/>
<path transform="translate(818,697)" d="m0 0 4 1-5 4-7 6 2-4z" fill="#BFDAD1"/>
<path transform="translate(349,419)" d="m0 0h1v9l-1 2h-3l1-8h2z" fill="#DFEAD9"/>
</svg>
